PathFileType	4	(X/Y/Z)	69_2_54_p0_0-234.trc
DataRate	CameraRate	NumFrames	NumMarkers	Units	OrigDataRate	OrigDataStartFrame	OrigNumFrames
50.0	50.0	5	27	m	50.0	58	235
Frame#	Time	RHip			RKnee			RAnkle			RBigToe			RSmallToe			RHeel			LHip			LKnee			LAnkle			LBigToe			LSmallToe			LHeel			Neck			Head			Nose			RShoulder			RElbow			RWrist			RThumb			RIndex			RPinky			LShoulder			LElbow			LWrist			LThumb			LIndex			LPinky			
		X1	Y1	Z1	X2	Y2	Z2	X3	Y3	Z3	X4	Y4	Z4	X5	Y5	Z5	X6	Y6	Z6	X7	Y7	Z7	X8	Y8	Z8	X9	Y9	Z9	X10	Y10	Z10	X11	Y11	Z11	X12	Y12	Z12	X13	Y13	Z13	X14	Y14	Z14	X15	Y15	Z15	X16	Y16	Z16	X17	Y17	Z17	X18	Y18	Z18	X19	Y19	Z19	X20	Y20	Z20	X21	Y21	Z21	X22	Y22	Z22	X23	Y23	Z23	X24	Y24	Z24	X25	Y25	Z25	X26	Y26	Z26	X27	Y27	Z27	
58	1.16	0.303377418260148	0.5042619987656948	0.46781832826798414	0.2587378565227769	0.5551324318585082	0.9002954062099916	0.22891463732311274	0.6024142037321509	1.3233841313186518	0.2605853095594085	0.4613970607380165	1.33982794694201	0.3215171535509064	0.4727202264426863	1.3203254207563069	0.17019862719973988	0.6842767038164661	1.3915762736535053	0.1226716864239251	0.4576373956382335	0.46100991240199213	0.06140131136553962	0.5117710560068502	0.9031543373731666	0.030312934943027912	0.574540919284554	1.338615318126962	0.11833952947153553	0.38067589314392175	1.30749704045505	0.05097540367010969	0.4176706017991945	1.3243396907727945	0.026324396839842768	0.6159215502421552	1.3882728479769768	0.19916420123592476	0.551649944766339	-0.0029447337750167055	0.249915641982985	0.48655727408998495	-0.24901895364227788	0.25526994075594717	0.4555516029977767	-0.11579755992910425	0.35224211284044116	0.5790314052597387	0.057642147504555576	0.3821346049545131	0.45172653319098754	0.23201429904059773	0.26090403645919014	0.4527340563529358	0.2636662299804355	0.16669859478667334	0.43933167947250723	0.21897798051975897	0.16226852251062038	0.42628221254380555	0.25376791969882884	0.1892804301044163	0.3845694865744097	0.300293683870591	0.06605224500641493	0.4995651980488293	0.036806744428517606	0.07857204396192381	0.39751247629428005	0.21391714778730375	0.18025788845890287	0.38034780028360543	0.2754857216251584	0.24364148156973126	0.3736376413522301	0.23919525117995627	0.25487439281762914	0.3887995790511377	0.2739728441632242	0.24288530607230202	0.3818204031857088	0.32026270257198086
59	1.18	0.3066902829576173	0.5071634544563993	0.4719943967843133	0.25830315401682524	0.5560136849782517	0.8964088342725397	0.2289237549172409	0.6023298826928358	1.3232694493657235	0.2606022229168393	0.46136234148491373	1.339762140035037	0.3216021598242024	0.4726283471592625	1.3202450306423346	0.1806385500563568	0.6688353508018979	1.3818726936668881	0.1252772179798731	0.46039543676995315	0.46112419443144953	0.06121574255079899	0.5135140225292921	0.9085093093095843	0.03206097011373227	0.5602766649810944	1.3310538978929307	0.11825217551357814	0.3786968677010234	1.3024261497939627	0.0520092337442602	0.41786064759861546	1.3203510387204749	0.026118901356824452	0.6165076425642133	1.3884867848779172	0.1993543830472753	0.5509239323230631	-0.011192509850979878	0.250022240977504	0.48675418267101206	-0.24898532340132556	0.255275773975105	0.4532163773430706	-0.11944433853795482	0.35565949066472813	0.5828244060417792	0.057883360409530606	0.38551172847185244	0.45342671988864086	0.23155981607899162	0.2714945891849865	0.4158868147816831	0.25968861113703723	0.1744861184388721	0.4253296167672654	0.21147443247358372	0.18036655024807655	0.3968577630306413	0.22834917982747954	0.20511539721125224	0.3589210254799533	0.28806662207887856	0.06626789504005588	0.500410219613056	0.03667432173739717	0.07859206066793895	0.39773548334123604	0.21729247704308888	0.18194984676318485	0.40020846419582584	0.2823621888280217	0.2331692571444192	0.3848249524962338	0.22780272182214711	0.2444461741110953	0.3882811952283902	0.27034493711920304	0.2363582629536376	0.400487820563148	0.318853100151718
60	1.2	0.29790939681538164	0.5204667065833843	0.4680092574664087	0.25726133906305665	0.5563663925769459	0.9011127041745866	0.22882452085540544	0.6024642982962175	1.3233262377198804	0.25265113980827786	0.4605364177294244	1.3411398516203143	0.3135900910782305	0.4827015918052343	1.3320340243291244	0.17919333934724746	0.6863353369851116	1.3949302712920126	0.12885522879472433	0.4624384496219129	0.4488984209166696	0.060760117940376654	0.5147009713110218	0.904400833177797	0.029602545522733684	0.575780320457024	1.3349919130234063	0.11888288314920957	0.3777102294094013	1.306266859563686	0.050869440388402555	0.41822454297087563	1.3244378768710339	0.02533649851267355	0.6184674951988406	1.3844266348240677	0.1990748421440724	0.5505012842461594	-0.00801836282877017	0.25041924939417154	0.48570699181374666	-0.25252949170979005	0.2552394456642472	0.4528933176467361	-0.11599495183352576	0.3590714930314748	0.5861534301651398	0.05490977572024149	0.3820069657895159	0.450670521165054	0.2309716186220075	0.2609786656952622	0.4530242565747516	0.25566617696782074	0.16942566916476934	0.42648532699080033	0.20535679268916637	0.1614267199375349	0.42692137585499607	0.23866453738932022	0.1891919759983497	0.37789613261985194	0.2939962727386553	0.0695211331906967	0.5027766104082199	0.03290638574133594	0.0786177970109946	0.3980345986553521	0.21426841677840272	0.20390128493227835	0.37073723980364953	0.2747444099668344	0.2381778406263007	0.3814930694339874	0.22160846558926395	0.25146189765840854	0.3959598320901023	0.2712279280716101	0.24957785160957965	0.3842893980573471	0.3053569555127666
61	1.22	0.2984188416611354	0.5198892223391154	0.47193891589819276	0.2555038861159741	0.5408507868432603	0.895659301909296	0.22861562841501262	0.6028301950037348	1.3235535368749014	0.2524193963078034	0.46091348152950784	1.3414010728375318	0.31335109933325606	0.4831774273078344	1.332153865488914	0.1686428837018611	0.7016846519110471	1.404761855874387	0.12880679610747994	0.4640646779121243	0.45396134775007474	0.06172942527641648	0.5145875825734605	0.9003866597721556	0.029564132143391802	0.5760006912527688	1.3352661406599384	0.10960310915501395	0.39081857654419055	1.3190260268038065	0.052051674580784114	0.41822057653931044	1.3202728506239176	0.02524653499015484	0.6187424944395229	1.384531048989128	0.20663242987732292	0.5536516095809341	-0.01120667317950617	0.2500669096188434	0.4867121288780398	-0.25241905027332723	0.2551632248729063	0.4545047663285521	-0.11566920291021238	0.3588167610216903	0.5991854849071504	0.05955845566567966	0.3852653007619122	0.454232247067128	0.23199780561432856	0.2663365519835757	0.4192475979146385	0.24097783833653627	0.18018373315748917	0.41064723335674286	0.20153037559662043	0.18231850659324336	0.3867709180527352	0.21467203949570743	0.20313087591991552	0.3504490573969641	0.27665171117106374	0.0696431285648237	0.5030833163228533	0.03259892481888997	0.08759921259068072	0.3880953922056501	0.2114581303299667	0.21284322039155018	0.35683068394417594	0.2687190510826692	0.24211121146168302	0.37089708170717567	0.22226596462353482	0.26105708106889897	0.3739423632598529	0.2691815177324626	0.24200411276915723	0.37330001984167627	0.30683622333366695
62	1.24	0.2972156148544705	0.5339067419570533	0.4712993962920912	0.25448633017713784	0.55431071386419	0.900522298095109	0.22872009400044926	0.6029677520931015	1.3236695418517053	0.25799828371353434	0.44477287751382505	1.331704040851145	0.32211601035260695	0.47063047920870005	1.323896743366447	0.16877835817440065	0.7015364313670426	1.404728680334331	0.12840388117960314	0.4647126329664934	0.4504953278115982	0.06157086096078146	0.5146722651335579	0.9004540410388326	0.03203013664290296	0.580381429579666	1.3327010851664574	0.11801480863287986	0.37893221634607205	1.3021664915432265	0.051048572281124506	0.41794613152740023	1.323803751599141	0.028571650448118963	0.6241593259009829	1.3867215952977747	0.20651261936944712	0.5550455137608864	-0.007383278026487167	0.2531954258853462	0.48947684286064963	-0.2557821480602666	0.2543860145403216	0.46670825266519367	-0.11832349614397798	0.3585271238259971	0.6111888466131724	0.06107232721008572	0.38870942995551855	0.4579337602049974	0.22856311951155406	0.26243826411788373	0.43067739428275514	0.23523774028140138	0.17736184849397063	0.41367801980499125	0.2023465351966437	0.1804590704712192	0.38915774463694597	0.2126953953468349	0.20851095205883874	0.34950736419660816	0.2746448757437516	0.07226466741482288	0.506672247510034	0.029044953968084923	0.09014297646807826	0.3738785984730084	0.20093583472270443	0.21264739738477995	0.3571238167239279	0.26832871094573113	0.23873521490497757	0.3690001464020723	0.2172543549403146	0.26237431367245795	0.374521007430916	0.26648147556730567	0.24501442621354347	0.3761857919166336	0.3118874997227189
